<?xml version="1.0" encoding="UTF-8"?><svg id="_レイヤー_2" xmlns="http://www.w3.org/2000/svg" viewBox="0 0 52.55 52.55"><defs><style>.cls-1{fill:#00bdad;}.cls-2,.cls-3{fill:#fff;}.cls-4{letter-spacing:.07em;}.cls-5{letter-spacing:.04em;}.cls-3{font-family:RoundedMplus1c-Medium, 'Rounded Mplus 1c';font-size:10.53px;}</style></defs><g id="_レイヤー_1-2"><g><rect class="cls-1" x="0" y="0" width="52.55" height="52.55"/><path class="cls-2" d="M21.52,20.98c-.31-.31-.81-.31-1.12,0-.31,.31-.31,.81,0,1.12l4.58,4.58c.15,.15,.36,.23,.56,.23s.4-.08,.56-.23l13.49-13.49c.31-.31,.31-.81,0-1.12-.31-.31-.81-.31-1.12,0l-3.02,3.02c-.93-1.31-2.12-2.42-3.51-3.23-1.73-1.02-3.71-1.56-5.73-1.56-6.24,0-11.32,5.08-11.32,11.32s5.08,11.32,11.32,11.32,11.32-5.08,11.32-11.32c0-.44-.35-.79-.79-.79s-.79,.35-.79,.79c0,5.37-4.37,9.74-9.74,9.74s-9.74-4.37-9.74-9.74,4.37-9.74,9.74-9.74c1.74,0,3.44,.46,4.93,1.34,1.27,.75,2.35,1.79,3.16,3.02l-8.76,8.76-4.02-4.02Z"/><text class="cls-3" transform="translate(12.9 46.17)"><tspan x="0" y="0">T</tspan><tspan class="cls-4" x="6.68" y="0">o</tspan><tspan class="cls-5" x="13.34" y="0">D</tspan><tspan x="20.82" y="0">o</tspan></text></g></g></svg>