<?xml version="1.0" encoding="UTF-8"?><svg id="_レイヤー_2" xmlns="http://www.w3.org/2000/svg" viewBox="0 0 512 512"><defs><style>.cls-1{fill:#eb4e3b;}.cls-2{fill:#fff;}</style></defs><g id="_レイヤー_1-2"><g><circle class="cls-1" cx="256" cy="256" r="256"/><g><path class="cls-2" d="M260.92,193.57h-74.88c-5.79,0-10.3,5.04-9.66,10.8l18.99,170.31c.55,4.92,4.71,8.64,9.66,8.64h101.94c4.95,0,9.11-3.72,9.66-8.64l18.99-170.31c.64-5.76-3.87-10.8-9.66-10.8h-65.04Z"/><path class="cls-2" d="M277.64,145.52v-10.98c0-3.24-2.63-5.87-5.87-5.87h-31.54c-3.24,0-5.87,2.63-5.87,5.87v10.98c0,3.12-2.44,5.69-5.55,5.86l-60.56,3.29c-3.11,.17-5.55,2.74-5.55,5.86v3.57c0,3.24,2.63,5.87,5.87,5.87h174.85c3.24,0,5.87-2.63,5.87-5.87v-3.57c0-3.12-2.44-5.69-5.55-5.86l-60.56-3.29c-3.11-.17-5.55-2.74-5.55-5.86Z"/></g></g></g></svg>