<?xml version="1.0" encoding="UTF-8"?><svg id="_レイヤー_2" xmlns="http://www.w3.org/2000/svg" viewBox="0 0 512 512"><defs><style>.cls-1{fill:#fff;}.cls-2{fill:#666;}</style></defs><g id="_レイヤー_1-2"><g><g><g><circle class="cls-1" cx="256.01" cy="256.01" r="236.61"/><path class="cls-2" d="M256,512C114.84,512,0,397.16,0,256S114.84,0,256,0,512,114.84,512,256s-114.84,256-256,256Zm0-473.22c-119.76,0-217.22,97.45-217.22,217.22s97.45,217.22,217.22,217.22,217.22-97.45,217.22-217.22S375.76,38.78,256,38.78Z"/></g><g><polyline class="cls-1" points="256.61 95.03 256.61 256.62 362.2 377.29"/><path class="cls-2" d="M362.2,396.67c-5.38,0-10.76-2.23-14.58-6.63l-105.6-120.67c-3.11-3.52-4.81-8.07-4.81-12.76V95.03c0-10.72,8.67-19.39,19.39-19.39s19.39,8.67,19.39,19.39V249.33l100.79,115.18c7.08,8.07,6.25,20.3-1.82,27.35-3.67,3.22-8.22,4.81-12.76,4.81Z"/></g></g><circle class="cls-2" cx="256.61" cy="256" r="39.05"/></g></g></svg>