<?xml version="1.0" encoding="UTF-8"?><svg id="_レイヤー_2" xmlns="http://www.w3.org/2000/svg" viewBox="0 0 137.39 23.95"><defs><style>.cls-1{fill:#00bdad;}.cls-2{fill:#4d4d4d;}</style></defs><g id="_レイヤー_1-2"><g><path class="cls-2" d="M1.05,3.11c-.29,0-.54-.1-.74-.31-.21-.21-.31-.45-.31-.74s.1-.54,.31-.74c.21-.21,.45-.31,.74-.31H14.89c.29,0,.54,.1,.74,.31,.21,.21,.31,.46,.31,.74s-.1,.54-.31,.74c-.21,.21-.46,.31-.74,.31h-5.4c-.19,0-.28,.09-.28,.28V22.71c0,.33-.12,.62-.36,.87-.24,.25-.53,.37-.88,.37s-.65-.12-.88-.37-.36-.54-.36-.87V3.39c0-.19-.09-.28-.28-.28H1.05Z"/><path class="cls-2" d="M31.85,21.75c-1.3,1.47-3.11,2.2-5.43,2.2s-4.12-.73-5.43-2.2c-1.3-1.47-1.95-3.53-1.95-6.17s.65-4.7,1.95-6.17c1.3-1.47,3.11-2.2,5.43-2.2s4.12,.73,5.43,2.2c1.3,1.47,1.95,3.53,1.95,6.17s-.65,4.7-1.95,6.17Zm-.47-6.17c0-4.34-1.65-6.51-4.96-6.51s-4.96,2.17-4.96,6.51,1.65,6.51,4.96,6.51,4.96-2.17,4.96-6.51Z"/><path class="cls-2" d="M39.42,23.73c-.5-.06-.91-.28-1.24-.67-.33-.38-.5-.83-.5-1.35V2.92c0-.52,.16-.97,.48-1.35,.32-.38,.74-.6,1.26-.67,1.14-.14,2.39-.22,3.75-.22,7.36,0,11.04,3.77,11.04,11.32,0,7.96-3.68,11.94-11.04,11.94-1.36,0-2.62-.07-3.75-.22Zm.74-20.44V21.34c0,.17,.09,.27,.28,.31,.81,.15,1.72,.22,2.73,.22,3,0,5.19-.78,6.59-2.33,1.4-1.55,2.09-4.06,2.09-7.54,0-3.16-.71-5.49-2.12-6.99-1.42-1.5-3.6-2.25-6.56-2.25-1.01,0-1.92,.07-2.73,.22-.19,.04-.28,.14-.28,.31Z"/><path class="cls-2" d="M70.76,21.75c-1.3,1.47-3.11,2.2-5.43,2.2s-4.12-.73-5.43-2.2c-1.3-1.47-1.95-3.53-1.95-6.17s.65-4.7,1.95-6.17c1.3-1.47,3.11-2.2,5.43-2.2s4.12,.73,5.43,2.2c1.3,1.47,1.95,3.53,1.95,6.17s-.65,4.7-1.95,6.17Zm-.47-6.17c0-4.34-1.65-6.51-4.96-6.51s-4.96,2.17-4.96,6.51,1.65,6.51,4.96,6.51,4.96-2.17,4.96-6.51Z"/><path class="cls-1" d="M85.47,23.95c-.48,0-.89-.18-1.24-.53-.35-.35-.53-.76-.53-1.24V2.3c0-.35,.13-.66,.39-.92,.26-.26,.56-.39,.92-.39s.66,.13,.91,.39c.26,.26,.39,.56,.39,.92V21.56c0,.19,.08,.28,.25,.28h9.65c.29,0,.54,.1,.74,.31,.21,.21,.31,.46,.31,.74s-.1,.54-.31,.74c-.21,.21-.46,.31-.74,.31h-10.73Z"/><path class="cls-1" d="M104.81,23.58c-.24,.25-.53,.37-.88,.37s-.65-.12-.88-.37c-.24-.25-.36-.54-.36-.87V8.75c0-.33,.12-.62,.36-.87,.24-.25,.53-.37,.88-.37s.65,.12,.88,.37,.36,.54,.36,.87v13.96c0,.33-.12,.62-.36,.87Z"/><path class="cls-1" d="M116.18,16.41c-2.01-.47-3.44-1.09-4.3-1.84-.86-.75-1.29-1.73-1.29-2.93,0-1.37,.51-2.45,1.54-3.24s2.49-1.19,4.39-1.19c1.43,0,2.84,.19,4.25,.56,.64,.17,.96,.59,.96,1.27,0,.25-.09,.43-.28,.56-.19,.12-.4,.15-.65,.09-1.36-.41-2.73-.62-4.09-.62-2.48,0-3.72,.8-3.72,2.39,0,.7,.25,1.29,.74,1.75,.5,.47,1.4,.84,2.7,1.13,2.23,.5,3.77,1.13,4.61,1.89s1.26,1.86,1.26,3.29-.53,2.47-1.6,3.26c-1.07,.79-2.57,1.18-4.51,1.18-1.51,0-2.95-.23-4.31-.68-.64-.21-.96-.65-.96-1.33,0-.23,.1-.41,.31-.54,.21-.13,.42-.16,.65-.08,1.34,.52,2.72,.78,4.12,.78,2.6,0,3.91-.86,3.91-2.57,0-.74-.26-1.36-.79-1.86s-1.5-.91-2.93-1.24Z"/><path class="cls-1" d="M126.63,9.99c-.27,0-.49-.09-.67-.26-.18-.17-.26-.4-.26-.67s.09-.49,.26-.67c.18-.18,.4-.26,.67-.26h2.26c.19,0,.28-.09,.28-.28V3.42c0-.33,.11-.61,.34-.84s.51-.34,.84-.34,.61,.11,.84,.34,.34,.51,.34,.84V7.85c0,.19,.09,.28,.28,.28h4.65c.27,0,.49,.09,.67,.26,.18,.18,.26,.4,.26,.67s-.09,.49-.26,.67c-.18,.18-.4,.26-.67,.26h-4.65c-.19,0-.28,.09-.28,.28v8.19c0,1.49,.2,2.47,.59,2.93,.39,.46,1.15,.7,2.26,.7,.66,0,1.21-.05,1.64-.16,.23-.04,.44,0,.64,.14,.2,.13,.29,.32,.29,.54,0,.29-.09,.55-.26,.78s-.4,.36-.67,.4c-.54,.1-1.22,.16-2.05,.16-1.82,0-3.08-.38-3.77-1.13-.69-.75-1.04-2.13-1.04-4.14V10.27c0-.19-.09-.28-.28-.28h-2.26Z"/></g><path class="cls-1" d="M103.53,6.11c-.26,0-.51-.1-.71-.29l-1.39-1.39c-.39-.39-.39-1.02,0-1.41s1.02-.39,1.41,0l.69,.69,3.4-3.4c.39-.39,1.02-.39,1.41,0s.39,1.02,0,1.41l-4.11,4.11c-.2,.2-.45,.29-.71,.29Z"/></g></svg>